# xmcd
#
# Track frame offsets: 
#        150
#        20844
#        47843
#        75938
#        102901
#        128731
#        153574
#        184992
#        208546
#        239379
#        259456
#        294192
#
# Disc length: 4280 seconds
#
# Revision: 4
# Processed by: cddbd v1.5.1PL0 Copyright (c) Steve Scherf et al.
# Submitted via: ExactAudioCopy v0.95a5
#
DISCID=a510b60c
DTITLE=Various Artist - Independence (Mixed by Seamus Haji) [CD1)
DYEAR=2000
DGENRE=House
TTITLE0=Soulsearcher - Do it me again (Jazz-N-Groove Dub Mix)
TTITLE1=Soulsearcher - Do it me again (Jazz-N-Groove Vocal Mix)
TTITLE2=atfc presents OnePhatDeeva feat Lisa Millett - Bad habit (Orig
TTITLE2=inal Mix)
TTITLE3=Awa Band - Timba (Original Mix)
TTITLE4=Cleptomaniacs - Time Out For Love (Original Mix)
TTITLE5=Soul Vision - You`ve been on my mind (Original Mix)
TTITLE6=Johnny Corporate - Sunday Shoutin (Original Mix)
TTITLE7=Secret Souls - Get Ready (Original Mix)
TTITLE8=Knee Deep - Can We Really Do This (Original Mix)
TTITLE9=Knee Deep - Your Love (Original Mix) 
TTITLE10=Bob Sinclar - I Feel For You (Original Mix)
TTITLE11=Crystal Clear - Live Your Life (Live Elements Dub)
EXTD=
EXTT0=
EXTT1=
EXTT2=
EXTT3=
EXTT4=
EXTT5=
EXTT6=
EXTT7=
EXTT8=
EXTT9=
EXTT10=
EXTT11=
PLAYORDER=
